{
  "accessors": [
    {
      "bufferView": 2,
      "componentType": 5126,
      "count": 65532,
      "max": [
        0.19711844623088837,
        0.2549540400505066,
        0.5882920026779175
      ],
      "min": [
        -0.33123359084129333,
        -0.11781930923461914,
        -1.032365083694458
      ],
      "type": "VEC3"
    },
    {
      "bufferView": 2,
      "byteOffset": 786384,
      "componentType": 5126,
      "count": 65532,
      "max": [
        0.9999709725379944,
        0.9999821782112122,
        0.9997140169143677
      ],
      "min": [
        -0.9999015927314758,
        -0.9999988079071045,
        -0.9999735355377197
      ],
      "type": "VEC3"
    },
    {
      "bufferView": 1,
      "componentType": 5126,
      "count": 65532,
      "max": [
        0.6265869140625,
        0.9683837890625
      ],
      "min": [
        0.0296630859375,
        0.4085693359375
      ],
      "type": "VEC2"
    },
    {
      "bufferView": 0,
      "componentType": 5125,
      "count": 186000,
      "type": "SCALAR"
    },
    {
      "bufferView": 2,
      "byteOffset": 1572768,
      "componentType": 5126,
      "count": 65532,
      "max": [
        0.31054192781448364,
        0.24100953340530396,
        0.8759516477584839
      ],
      "min": [
        -0.27389004826545715,
        -0.2978646159172058,
        -1.032137155532837
      ],
      "type": "VEC3"
    },
    {
      "bufferView": 2,
      "byteOffset": 2359152,
      "componentType": 5126,
      "count": 65532,
      "max": [
        0.9999776482582092,
        0.9999175667762756,
        0.9998837113380432
      ],
      "min": [
        -0.9999836087226868,
        -0.9999901056289673,
        -0.999992311000824
      ],
      "type": "VEC3"
    },
    {
      "bufferView": 1,
      "byteOffset": 524256,
      "componentType": 5126,
      "count": 65532,
      "max": [
        0.6558837890625,
        0.9976806640625
      ],
      "min": [
        0.0003662109375,
        0.3792724609375
      ],
      "type": "VEC2"
    },
    {
      "bufferView": 0,
      "byteOffset": 744000,
      "componentType": 5125,
      "count": 185811,
      "type": "SCALAR"
    },
    {
      "bufferView": 2,
      "byteOffset": 3145536,
      "componentType": 5126,
      "count": 65534,
      "max": [
        0.3162398934364319,
        0.2395140528678894,
        0.8760606050491333
      ],
      "min": [
        -0.3173377811908722,
        -0.2980547547340393,
        -1.027015209197998
      ],
      "type": "VEC3"
    },
    {
      "bufferView": 2,
      "byteOffset": 3931944,
      "componentType": 5126,
      "count": 65534,
      "max": [
        0.9999750256538391,
        0.9999367594718933,
        0.9989558458328247
      ],
      "min": [
        -0.9999894499778748,
        -0.9999988079071045,
        -0.9999677538871765
      ],
      "type": "VEC3"
    },
    {
      "bufferView": 1,
      "byteOffset": 1048512,
      "componentType": 5126,
      "count": 65534,
      "max": [
        0.6578369140625,
        0.9996337890625
      ],
      "min": [
        0.0003662109375,
        0.3773193359375
      ],
      "type": "VEC2"
    },
    {
      "bufferView": 0,
      "byteOffset": 1487244,
      "componentType": 5125,
      "count": 229509,
      "type": "SCALAR"
    },
    {
      "bufferView": 2,
      "byteOffset": 4718352,
      "componentType": 5126,
      "count": 1302,
      "max": [
        0.1963517665863037,
        0.24100953340530396,
        -0.07510006427764893
      ],
      "min": [
        -0.01109219528734684,
        -0.02391141653060913,
        -0.5963641405105591
      ],
      "type": "VEC3"
    },
    {
      "bufferView": 2,
      "byteOffset": 4733976,
      "componentType": 5126,
      "count": 1302,
      "max": [
        0.9997313618659973,
        0.9998806715011597,
        0.4712236225605011
      ],
      "min": [
        -0.9962936639785767,
        -0.845698356628418,
        -0.9796517491340637
      ],
      "type": "VEC3"
    },
    {
      "bufferView": 1,
      "byteOffset": 1572784,
      "componentType": 5126,
      "count": 1302,
      "max": [
        0.5851518511772156,
        0.8503727912902832
      ],
      "min": [
        0.0179443359375,
        0.3948974609375
      ],
      "type": "VEC2"
    },
    {
      "bufferView": 0,
      "byteOffset": 2405280,
      "componentType": 5125,
      "count": 1554,
      "type": "SCALAR"
    }
  ],
  "asset": {
    "extras": {
      "author": "scanontherun (https://sketchfab.com/scanontherun)",
      "license": "CC-BY-4.0 (http://creativecommons.org/licenses/by/4.0/)",
      "source": "https://sketchfab.com/3d-models/person-bcd49ca3bcfb43739fd90a8dbfcf5319",
      "title": "Person"
    },
    "generator": "Sketchfab-12.68.0",
    "version": "2.0"
  },
  "bufferViews": [
    {
      "buffer": 0,
      "byteLength": 2411496,
      "name": "floatBufferViews",
      "target": 34963
    },
    {
      "buffer": 0,
      "byteLength": 1583200,
      "byteOffset": 2411496,
      "byteStride": 8,
      "name": "floatBufferViews",
      "target": 34962
    },
    {
      "buffer": 0,
      "byteLength": 4749600,
      "byteOffset": 3994696,
      "byteStride": 12,
      "name": "floatBufferViews",
      "target": 34962
    }
  ],
  "buffers": [
    {
      "byteLength": 8744296,
      "uri": "scene.bin"
    }
  ],
  "extensionsUsed": [
    "KHR_materials_unlit"
  ],
  "images": [
    {
      "uri": "textures/material_0_baseColor.jpeg"
    }
  ],
  "materials": [
    {
      "doubleSided": true,
      "extensions": {
        "KHR_materials_unlit": {}
      },
      "name": "material_0",
      "pbrMetallicRoughness": {
        "baseColorTexture": {
          "index": 0
        },
        "metallicFactor": 0.0
      }
    }
  ],
  "meshes": [
    {
      "name": "Object_0",
      "primitives": [
        {
          "attributes": {
            "NORMAL": 1,
            "POSITION": 0,
            "TEXCOORD_0": 2
          },
          "indices": 3,
          "material": 0,
          "mode": 4
        }
      ]
    },
    {
      "name": "Object_1",
      "primitives": [
        {
          "attributes": {
            "NORMAL": 5,
            "POSITION": 4,
            "TEXCOORD_0": 6
          },
          "indices": 7,
          "material": 0,
          "mode": 4
        }
      ]
    },
    {
      "name": "Object_2",
      "primitives": [
        {
          "attributes": {
            "NORMAL": 9,
            "POSITION": 8,
            "TEXCOORD_0": 10
          },
          "indices": 11,
          "material": 0,
          "mode": 4
        }
      ]
    },
    {
      "name": "Object_3",
      "primitives": [
        {
          "attributes": {
            "NORMAL": 13,
            "POSITION": 12,
            "TEXCOORD_0": 14
          },
          "indices": 15,
          "material": 0,
          "mode": 4
        }
      ]
    }
  ],
  "nodes": [
    {
      "children": [
        1
      ],
      "matrix": [
        1.0,
        0.0,
        0.0,
        0.0,
        0.0,
        2.220446049250313e-16,
        -1.0,
        0.0,
        0.0,
        1.0,
        2.220446049250313e-16,
        0.0,
        0.0,
        0.0,
        0.0,
        1.0
      ],
      "name": "Sketchfab_model"
    },
    {
      "children": [
        2,
        3,
        4,
        5
      ],
      "name": "model_mesh.obj.cleaner.gles"
    },
    {
      "mesh": 0,
      "name": "Object_2"
    },
    {
      "mesh": 1,
      "name": "Object_3"
    },
    {
      "mesh": 2,
      "name": "Object_4"
    },
    {
      "mesh": 3,
      "name": "Object_5"
    }
  ],
  "samplers": [
    {
      "magFilter": 9729,
      "minFilter": 9987,
      "wrapS": 10497,
      "wrapT": 10497
    }
  ],
  "scene": 0,
  "scenes": [
    {
      "name": "Sketchfab_Scene",
      "nodes": [
        0
      ]
    }
  ],
  "textures": [
    {
      "sampler": 0,
      "source": 0
    }
  ]
}
